<svg xmlns="http://www.w3.org/2000/svg" version="1.1">
  <path
    fill="#ff5f00"
    d="M29.093,20.77v-9.173h-0.001c-0.007-0.87-0.585-1.643-1.416-1.894l0.001-0.002l-3.002-0.855    l-0.003,0.011l-4.307,9.113L15.866,6.342l0.002-0.007l-4.635-1.321c-0.206-0.057-0.419-0.085-0.635-0.085    c-1.315,0-2.385,1.067-2.391,2.381H8.206v13.817h0.001c0.008,1.243,1.02,2.251,2.265,2.251c0.073,0,0.145-0.004,0.217-0.012v0.001    l1.881-0.182l-0.001-0.01h0.001V8.735l5.382,13.91l0.002,0.015l4.099-0.401l0.004,0.002l0-0.003h0.001l5.019-10.639v7.664h-0.001    c0.001,0.032,0.001,0.065,0.001,0.097c0,2.742-2.042,5.09-4.754,5.466L9.358,26.111C9.25,26.119,9.14,26.124,9.03,26.124    c-2.261,0-4.099-1.837-4.099-4.095v-0.068V6.648V6.596c0-2.448,1.991-4.439,4.439-4.439c0.459,0,0.91,0.069,1.343,0.206    l15.32,4.364l0.001-0.001c0.078,0.024,0.159,0.038,0.242,0.038c0.453,0,0.822-0.369,0.822-0.821c0-0.355-0.226-0.667-0.562-0.78    l-0.002,0.006l0.002-0.006L9.996,0.445C9.17,0.137,8.301-0.02,7.411-0.02C3.327-0.02,0.005,3.301,0,7.384v15.814v0.011    c0,3.756,3.058,6.811,6.815,6.811c0.192,0,0.386-0.008,0.577-0.025v0.001l14.825-1.44v0.001c0.003-0.001,0.006-0.001,0.009-0.002    l0.02-0.001v-0.001c3.906-0.422,6.848-3.698,6.848-7.637C29.095,20.868,29.095,20.818,29.093,20.77L29.093,20.77z"
  ></path>
</svg>